<?xml version="1.0" encoding="UTF-8"?>
<svg id="Layer_2" data-name="Layer 2" xmlns="http://www.w3.org/2000/svg" viewBox="0 0 266 235">
  <defs>
    <style>
      .cls-1 {
        fill: #f6f8f8;
      }

      .cls-2 {
        fill: #033435;
      }

      .cls-3 {
        fill: #033636;
      }

      .cls-4 {
        fill: #75ccbd;
      }
    </style>
  </defs>
  <g id="Layer_4" data-name="Layer 4">
    <g>
      <path class="cls-1" d="M0,0c88.67,0,177.33,0,266,0,0,78.33,0,156.67,0,235-88.67,0-177.33,0-266,0C0,156.67,0,78.33,0,0ZM132.95,226.81c37.33,0,74.66,0,111.99,0,8.99,0,12.19-3.09,12.19-11.86,.01-64.83,.01-129.66,0-194.49,0-8.57-3.22-11.9-11.64-11.9-75-.02-149.99-.02-224.99,0-8.85,0-11.96,3.18-11.96,12.08,0,64.66,0,129.33,0,193.99,0,9.05,3.21,12.19,12.41,12.19,37.33,0,74.66,0,111.99,0Z"/>
      <path class="cls-2" d="M132.95,226.81c-37.33,0-74.66,0-111.99,0-9.21,0-12.41-3.14-12.41-12.19,0-64.66,0-129.33,0-193.99,0-8.9,3.11-12.07,11.96-12.08,75-.02,149.99-.02,224.99,0,8.42,0,11.64,3.33,11.64,11.9,0,64.83,.01,129.66,0,194.49,0,8.78-3.2,11.86-12.19,11.86-37.33,0-74.66,0-111.99,0Zm78.64-123.75c-5.93,10.43-11.37,20.69-17.54,30.49-2.77,4.41-6.66,8.32-10.71,11.66-4.39,3.63-8.37,2.46-10.14-2.88-1.65-4.99-2.92-10.31-3.1-15.53-.49-13.44-.87-26.94-.19-40.36,.7-13.67-5.91-21.91-17.31-27.53-13.53-6.66-27.77-7.16-42.37-5.05-46.5,6.7-68.73,53.12-59,90.9,3.89,15.12,12.26,26.84,29.27,28.67,10.2,1.1,20.14-.95,29.57-5.28,9.04-4.16,15.71-10.94,21.37-19.4,4.93,13.05,12.55,22.43,26.64,24.12,9.38,1.13,18.61-.07,27.35-3.88,16.8-7.33,30.38-17.98,35.87-36.37,3.7-12.39-.48-24.28-9.7-29.57Z"/>
      <path class="cls-4" d="M211.59,103.06c9.23,5.29,13.4,17.18,9.7,29.57-5.49,18.39-19.07,29.04-35.87,36.37-8.75,3.81-17.98,5.01-27.35,3.88-14.09-1.7-21.71-11.07-26.64-24.12-5.65,8.46-12.33,15.25-21.37,19.4-9.42,4.33-19.36,6.38-29.57,5.28-17.01-1.83-25.38-13.56-29.27-28.67-9.73-37.78,12.5-84.2,59-90.9,14.6-2.1,28.85-1.61,42.37,5.05,11.4,5.62,18.01,13.86,17.31,27.53-.69,13.42-.3,26.92,.19,40.36,.19,5.22,1.46,10.54,3.1,15.53,1.76,5.34,5.75,6.51,10.14,2.88,4.04-3.34,7.93-7.26,10.71-11.66,6.17-9.8,11.61-20.07,17.54-30.49Zm-87.54-10.83c-.27-2.4-.45-5.56-.99-8.66-1.03-5.89-4.61-7.76-9.6-4.46-2.93,1.94-5.55,4.83-7.41,7.84-5.76,9.38-8.32,19.96-8.93,30.77-.45,8.02-.17,16.28,1.25,24.16,1.42,7.89,8.15,9.2,13.55,3.13,2.15-2.42,3.82-5.47,5.04-8.5,5.64-13.96,6.02-28.8,7.09-44.3Z"/>
      <path class="cls-3" d="M124.04,92.24c-1.07,15.5-1.45,30.34-7.09,44.3-1.22,3.03-2.89,6.07-5.04,8.5-5.39,6.07-12.12,4.76-13.55-3.13-1.42-7.89-1.7-16.14-1.25-24.16,.61-10.81,3.17-21.39,8.93-30.77,1.85-3.02,4.47-5.9,7.41-7.84,4.99-3.3,8.57-1.44,9.6,4.46,.54,3.1,.73,6.25,.99,8.66Z"/>
    </g>
  </g>
</svg>