<?xml version="1.0" encoding="UTF-8"?>
<svg id="Layer_2" data-name="Layer 2" xmlns="http://www.w3.org/2000/svg" viewBox="0 0 264.73 234.22">
  <defs>
    <style>
      .cls-1 {
        fill: #76cebf;
        stroke: #76cebf;
        stroke-width: .75px;
      }

      .cls-1, .cls-2 {
        stroke-miterlimit: 10;
      }

      .cls-2 {
        fill: #023435;
        stroke: #fff;
        stroke-width: 8px;
      }
    </style>
  </defs>
  <g id="Layer_4" data-name="Layer 4">
    <g id="finalLogo">
      <rect class="cls-2" x="4" y="4" width="256.73" height="226.22" rx="13.33" ry="13.33"/>
      <path class="cls-1" d="M168.72,79.91c0,7.9-.3,17.93-.3,27.66,0,20.06,1.22,39.52,9.73,39.52,10.34,0,25.53-27.66,32.53-44.69,6.69,3.95,10.94,12.16,10.94,20.97,0,25.23-30.7,48.94-57.76,48.94-11.86,0-25.54-3.65-32.83-25.53-8.82,15.2-23.71,25.84-48.03,25.84-21.89,0-34.05-21.28-34.05-45.9,0-33.74,23.1-74.17,75.39-74.17,21.89,0,44.38,11.55,44.38,27.36Zm-44.99,11.25c0-5.47-.3-14.59-5.78-14.59-14.29,0-22.5,29.18-22.5,50.46,0,12.16,2.74,21.58,8.51,21.58,17.33,0,19.76-43.77,19.76-57.45Z"/>
    </g>
  </g>
</svg>