<?xml version="1.0" encoding="UTF-8"?>
<svg id="Layer_2" data-name="Layer 2" xmlns="http://www.w3.org/2000/svg" viewBox="0 0 17.06 17.06">
  <defs>
    <style>
      .cls-1 {
        fill: #dcf2ee;
      }

      .cls-2 {
        fill: #edf8f6;
      }

      .cls-3 {
        fill: #023435;
      }

      .cls-4 {
        fill: #043737;
      }

      .cls-5 {
        fill: #75ccbd;
      }
    </style>
  </defs>
  <g id="Layer_4" data-name="Layer 4">
    <g>
      <path class="cls-5" d="M0,16.99V0H16.89c0,3.45,0,6.91,0,10.36,0,2.21,0,4.41,0,6.62-.17,0-.33,0-.5,0-5.46,0-10.92,0-16.39,0ZM1.03,1.02V15.97H15.87V1.02H1.03Z"/>
      <path class="cls-2" d="M16.89,16.98c0-2.21,0-4.41,0-6.62,0-3.45,0-6.91,0-10.36,.05,.01,.13,.02,.14,.04,.02,.08,0,.17,0,.25,0,5.5,0,10.99,0,16.49,0,.09,.15,.31-.14,.29,0-.03,0-.05,0-.08Z"/>
      <path class="cls-1" d="M16.89,16.98s0,.05,0,.08c-5.52,0-11.05,0-16.57,0-.11,0-.21-.04-.32-.07,5.46,0,10.92,0,16.39,0,.17,0,.33,0,.5,0Z"/>
      <path class="cls-3" d="M1.03,1.02H15.87V15.97H1.03V1.02Zm7.31,9.44s.06,.02,.06,.03c.03,.06,.07,.13,.09,.19,.37,.87,1.02,1.31,1.96,1.26,1.38-.07,2.47-.7,3.19-1.89,.22-.37,.3-.85,.33-1.29,.03-.48-.2-.89-.63-1.16-.31,.57-.58,1.13-.91,1.66-.21,.33-.46,.65-.74,.91-.36,.33-.65,.24-.79-.24-.09-.31-.15-.63-.16-.95-.02-.9-.02-1.8-.02-2.7,0-.4-.13-.74-.43-.99-.27-.21-.56-.41-.88-.54-2.33-.92-5,.3-5.84,2.67-.41,1.17-.47,2.35,.13,3.49,.36,.69,.93,1.06,1.74,1.05,1.22,0,2.2-.45,2.89-1.51Z"/>
      <path class="cls-5" d="M8.34,10.46c-.68,1.06-1.67,1.5-2.89,1.51-.8,0-1.37-.36-1.74-1.05-.6-1.13-.54-2.32-.13-3.49,.84-2.37,3.51-3.59,5.84-2.67,.31,.12,.61,.33,.88,.54,.3,.24,.43,.58,.43,.99,0,.9,0,1.8,.02,2.7,0,.32,.07,.65,.16,.95,.14,.48,.44,.57,.79,.24,.28-.27,.54-.58,.74-.91,.32-.53,.6-1.08,.91-1.66,.43,.27,.66,.69,.63,1.16-.03,.44-.11,.93-.33,1.29-.71,1.19-1.81,1.81-3.19,1.89-.94,.05-1.59-.39-1.96-1.26-.03-.07-.06-.13-.09-.19,0,0-.02-.01-.06-.03Zm-.34-3.42l-.05-.02c-.02-.22-.03-.45-.07-.67-.07-.35-.29-.45-.6-.28-.12,.07-.25,.16-.32,.28-.74,1.14-.92,2.39-.63,3.71,.1,.46,.52,.55,.83,.19,.19-.23,.36-.52,.43-.81,.17-.79,.28-1.59,.41-2.39Z"/>
      <path class="cls-4" d="M7.99,7.04c-.13,.8-.24,1.6-.41,2.39-.06,.29-.23,.58-.43,.81-.31,.36-.73,.28-.83-.19-.29-1.31-.11-2.56,.63-3.71,.07-.11,.2-.21,.32-.28,.31-.18,.53-.07,.6,.28,.04,.22,.05,.45,.07,.67l.05,.02Z"/>
    </g>
  </g>
</svg>