<?xml version="1.0" encoding="UTF-8"?>
<svg id="Layer_2" data-name="Layer 2" xmlns="http://www.w3.org/2000/svg" viewBox="0 0 264.96 234.48">
  <defs>
    <style>
      .cls-1 {
        fill: #fff;
      }
    </style>
  </defs>
  <g id="Layer_4" data-name="Layer 4">
    <g id="JPG_SVG_version" data-name="JPG_SVG version">
      <g>
        <path d="M249.41,234.48H15.59c-.22-.08-.43-.19-.65-.23-8.59-1.35-14.69-8.48-14.7-17.17,0-66.37,0-132.74,0-199.1,0-9.94,7.58-17.52,17.52-17.52,22.14,0,44.28,0,66.42,0,54.39,0,108.78,0,163.17,0,9.57,0,17.36,7.67,17.36,17.1,0,66.61,0,133.22,0,199.82,0,7.53-5.3,14.42-12.57,16.39-.91,.25-1.82,.47-2.74,.7Zm-116.91-8.03c38.05,0,76.1-.05,114.15,.05,5.76,.02,10.13-4.31,10.13-10.13-.08-66.01-.05-132.03-.05-198.04,0-5.95-3.97-9.92-9.91-9.92-76.26,0-152.51,0-228.77,0-5.84,0-9.84,4.02-9.84,9.88,0,66.09,0,132.19,0,198.28,0,5.97,3.92,9.88,9.92,9.88,38.13,0,76.26,0,114.39,0Z"/>
        <path class="cls-1" d="M249.41,234.48c.91-.23,1.83-.45,2.74-.7,7.27-1.98,12.57-8.86,12.57-16.39,0-66.61,0-133.22,0-199.82,0-9.44-7.8-17.1-17.36-17.1-54.39,0-108.78,0-163.17,0-22.14,0-44.28,0-66.42,0C7.82,.46,.24,8.04,.24,17.98c0,66.37,0,132.74,0,199.1,0,8.69,6.11,15.83,14.7,17.17,.22,.04,.44,.15,.65,.23H0c0-78.15,0-156.31,0-234.48H264.96V234.48h-15.55Z"/>
        <path class="cls-1" d="M132.5,226.45c-38.13,0-76.26,0-114.39,0-6,0-9.92-3.91-9.92-9.88,0-66.09,0-132.19,0-198.28,0-5.86,4.01-9.88,9.84-9.88,76.26,0,152.51,0,228.77,0,5.95,0,9.91,3.97,9.91,9.92,0,66.01-.03,132.03,.05,198.04,0,5.82-4.37,10.14-10.13,10.13-38.05-.1-76.1-.05-114.15-.05Zm78.09-124.2c-.19,.39-.32,.64-.43,.88-2.03,4.38-3.94,8.81-6.12,13.12-3.83,7.6-8.1,14.96-13.43,21.64-2.35,2.94-4.86,5.74-8.11,7.74-4.22,2.59-7.48,1.72-9.58-2.78-.97-2.07-1.64-4.33-2.13-6.58-1.55-7.14-1.82-14.42-1.87-21.68-.07-9.34,.16-18.69,.18-28.04,0-3.35,.14-6.76-.45-10.02-1-5.48-4.51-9.53-8.8-12.86-7.81-6.08-16.87-9.1-26.54-10.44-9.15-1.27-18.26-.67-27.28,1.21-14.47,3.01-27.16,9.49-37.1,20.52-16.71,18.55-22.84,40.39-18.97,64.98,1.24,7.9,4.19,15.22,9.22,21.57,5.54,6.99,12.7,11.06,21.67,11.68,5.21,.36,10.38-.12,15.49-1.07,12.4-2.32,22.75-8.16,30.59-18.17,1.44-1.84,2.74-3.81,4.06-5.66,1.08,2.39,2.06,4.83,3.26,7.16,4.2,8.14,10.36,14.03,19.44,16.35,6.17,1.58,12.42,1.51,18.66,.44,11.18-1.92,21.11-6.65,29.97-13.66,7.34-5.81,13.32-12.76,16.92-21.52,3.03-7.4,3.9-14.96,1.14-22.65-1.83-5.12-4.95-9.25-9.79-12.15Z"/>
        <path d="M210.59,102.25c4.84,2.9,7.96,7.03,9.79,12.15,2.76,7.7,1.89,15.26-1.14,22.65-3.59,8.76-9.57,15.71-16.92,21.52-8.85,7.01-18.78,11.74-29.97,13.66-6.24,1.07-12.49,1.14-18.66-.44-9.09-2.32-15.25-8.21-19.44-16.35-1.2-2.33-2.18-4.77-3.26-7.16-1.32,1.85-2.61,3.81-4.06,5.66-7.84,10.01-18.19,15.85-30.59,18.17-5.12,.96-10.29,1.43-15.49,1.07-8.97-.62-16.13-4.69-21.67-11.68-5.03-6.34-7.98-13.67-9.22-21.57-3.87-24.59,2.27-46.43,18.97-64.98,9.94-11.03,22.62-17.52,37.1-20.52,9.02-1.87,18.12-2.47,27.28-1.21,9.67,1.34,18.73,4.36,26.54,10.44,4.29,3.34,7.8,7.38,8.8,12.86,.59,3.26,.45,6.68,.45,10.02-.02,9.35-.25,18.69-.18,28.04,.06,7.26,.33,14.54,1.87,21.68,.49,2.24,1.16,4.5,2.13,6.58,2.1,4.5,5.36,5.37,9.58,2.78,3.25-2,5.76-4.79,8.11-7.74,5.33-6.68,9.59-14.03,13.43-21.64,2.17-4.31,4.09-8.74,6.12-13.12,.11-.25,.24-.49,.43-.88Zm-87.12-8c0-1.19,.17-3.41-.04-5.58-.27-2.68-.63-5.39-1.36-7.98-.79-2.77-2.46-3.65-5.29-3.26-1.05,.15-2.11,.47-3.07,.91-3.62,1.69-6,4.69-8.01,8-3.84,6.32-6,13.28-7.49,20.45-2.07,9.98-3.06,20.04-1.54,30.21,.47,3.13,1.22,6.19,3.03,8.87,1.14,1.69,2.65,2.79,4.77,2.7,1.87-.08,3.59-.69,5.13-1.78,1.96-1.39,3.43-3.21,4.65-5.25,3.24-5.42,4.86-11.42,6.12-17.53,1.96-9.48,2.77-19.1,3.1-29.76Z"/>
        <path class="cls-1" d="M123.46,94.25c-.33,10.66-1.14,20.28-3.1,29.76-1.26,6.11-2.88,12.11-6.12,17.53-1.22,2.04-2.69,3.87-4.65,5.25-1.54,1.09-3.26,1.7-5.13,1.78-2.12,.09-3.64-1.01-4.77-2.7-1.81-2.68-2.56-5.74-3.03-8.87-1.52-10.17-.53-20.23,1.54-30.21,1.49-7.17,3.65-14.13,7.49-20.45,2.01-3.31,4.39-6.31,8.01-8,.96-.45,2.02-.77,3.07-.91,2.83-.39,4.5,.48,5.29,3.26,.74,2.58,1.1,5.29,1.36,7.98,.22,2.17,.04,4.39,.04,5.58Z"/>
      </g>
    </g>
  </g>
</svg>