<?xml version="1.0" encoding="UTF-8"?>
<svg id="Layer_2" data-name="Layer 2" xmlns="http://www.w3.org/2000/svg" viewBox="0 0 264.96 234.48">
  <defs>
    <style>
      .cls-1 {
        fill: #fff;
      }
    </style>
  </defs>
  <g id="Layer_4" data-name="Layer 4">
    <g id="JPG_SVG_version" data-name="JPG_SVG version">
      <g>
        <path class="cls-1" d="M0,0H264.96V234.48H0C0,156.32,0,78.16,0,0ZM132.33,226.44c38.08,0,76.17-.05,114.25,.05,5.78,.02,10.09-4.45,10.08-10.07-.08-66.04-.05-132.07-.05-198.11,0-6.21-3.89-10.12-10.08-10.12-76.13,0-152.25,0-228.38,0-6.1,0-10.04,3.94-10.04,10.05,0,66.08,0,132.15,0,198.23,0,6.07,3.89,9.96,9.97,9.96,38.08,0,76.17,0,114.25,0Z"/>
        <path d="M132.33,226.44c-38.08,0-76.17,0-114.25,0-6.07,0-9.97-3.89-9.97-9.96,0-66.08,0-132.15,0-198.23,0-6.11,3.94-10.05,10.04-10.05,76.13,0,152.25,0,228.38,0,6.19,0,10.08,3.91,10.08,10.12,0,66.04-.03,132.07,.05,198.11,0,5.62-4.3,10.08-10.08,10.07-38.08-.1-76.17-.05-114.25-.05Zm78.14-124.29c-.17,.36-.3,.64-.44,.92-2.55,5.37-4.96,10.81-7.7,16.09-3.83,7.39-8.14,14.49-13.64,20.79-2.06,2.36-4.27,4.55-7.08,6.03-3.56,1.87-6.36,1.15-8.32-2.33-.91-1.61-1.59-3.41-2.08-5.2-1.84-6.8-2.25-13.8-2.33-20.79-.12-10.91,.11-21.83,.13-32.74,0-2.75,.07-5.55-.4-8.24-.96-5.42-4.28-9.48-8.46-12.83-8.41-6.73-18.27-9.84-28.79-11.02-8.52-.96-16.99-.33-25.37,1.41-14.68,3.06-27.5,9.68-37.52,20.94-16.25,18.28-22.28,39.75-18.76,63.88,1.12,7.67,3.83,14.84,8.45,21.16,5.11,6.99,11.8,11.48,20.48,12.68,4.71,.65,9.41,.28,14.09-.33,16.16-2.09,28.84-9.74,37.57-23.65,.17-.28,.39-.53,.53-.72,1.3,2.77,2.44,5.54,3.86,8.16,4.37,8.04,10.79,13.58,19.89,15.6,6.25,1.39,12.55,1.25,18.79,0,14.01-2.81,25.91-9.52,35.75-19.85,5.39-5.66,9.5-12.13,11.55-19.76,1.97-7.32,1.7-14.48-1.84-21.32-1.93-3.72-4.62-6.76-8.38-8.9Z"/>
        <path class="cls-1" d="M210.47,102.15c3.76,2.13,6.45,5.17,8.38,8.9,3.54,6.84,3.81,14,1.84,21.32-2.05,7.63-6.16,14.1-11.55,19.76-9.84,10.33-21.74,17.04-35.75,19.85-6.24,1.25-12.54,1.39-18.79,0-9.1-2.02-15.51-7.55-19.89-15.6-1.42-2.62-2.56-5.39-3.86-8.16-.14,.19-.36,.44-.53,.72-8.73,13.92-21.41,21.56-37.57,23.65-4.68,.61-9.38,.98-14.09,.33-8.68-1.21-15.38-5.69-20.48-12.68-4.62-6.32-7.33-13.49-8.45-21.16-3.52-24.13,2.51-45.61,18.76-63.88,10.02-11.27,22.84-17.88,37.52-20.94,8.38-1.75,16.85-2.37,25.37-1.41,10.52,1.18,20.38,4.29,28.79,11.02,4.18,3.34,7.5,7.41,8.46,12.83,.48,2.69,.41,5.49,.4,8.24-.02,10.91-.25,21.83-.13,32.74,.07,6.99,.48,13.99,2.33,20.79,.49,1.79,1.17,3.59,2.08,5.2,1.96,3.48,4.76,4.2,8.32,2.33,2.81-1.48,5.02-3.67,7.08-6.03,5.5-6.3,9.81-13.41,13.64-20.79,2.74-5.27,5.14-10.72,7.7-16.09,.13-.28,.26-.55,.44-.92Zm-86.88-7.28c-.13,0-.26-.02-.38-.03,0-2.92,.19-5.85-.06-8.74-.19-2.15-.77-4.32-1.54-6.35-.78-2.08-2.31-2.74-4.51-2.54-3.4,.31-5.96,2.14-8.19,4.53-2.62,2.81-4.54,6.1-5.99,9.62-5.91,14.35-8.11,29.26-6.47,44.71,.36,3.34,1.15,6.62,3.01,9.52,.96,1.5,2.2,2.68,4.07,2.85,2.47,.22,4.63-.64,6.54-2.16,2.63-2.09,4.34-4.89,5.71-7.89,3.44-7.53,5.03-15.57,6-23.71,.78-6.58,1.22-13.2,1.82-19.81Z"/>
        <path d="M123.59,94.87c-.59,6.6-1.03,13.23-1.82,19.81-.97,8.15-2.56,16.18-6,23.71-1.37,3-3.08,5.79-5.71,7.89-1.91,1.52-4.07,2.38-6.54,2.16-1.87-.17-3.11-1.36-4.07-2.85-1.87-2.89-2.66-6.18-3.01-9.52-1.65-15.44,.55-30.36,6.47-44.71,1.45-3.52,3.38-6.81,5.99-9.62,2.23-2.39,4.8-4.22,8.19-4.53,2.2-.2,3.73,.46,4.51,2.54,.76,2.03,1.35,4.2,1.54,6.35,.26,2.89,.06,5.83,.06,8.74,.13,0,.26,.02,.38,.03Z"/>
      </g>
    </g>
  </g>
</svg>