<?xml version="1.0" encoding="UTF-8"?>
<svg id="Layer_2" data-name="Layer 2" xmlns="http://www.w3.org/2000/svg" viewBox="0 0 264.96 234.48">
  <defs>
    <style>
      .cls-1 {
        fill: #fdfefe;
      }

      .cls-2 {
        fill: #75cdbe;
      }

      .cls-3 {
        fill: #023435;
      }

      .cls-4 {
        fill: #76cdbe;
      }
    </style>
  </defs>
  <g id="Layer_4" data-name="Layer 4">
    <g id="JPG_SVG_version" data-name="JPG_SVG version">
      <g>
        <path class="cls-1" d="M264.96,234.48H0V0H264.96V234.48ZM132.45,8.33c-38.17,0-76.33,0-114.5,.02-1.18,0-2.42,.12-3.52,.49-4.1,1.39-6.33,4.8-6.33,9.42,0,65.78,0,131.56,0,197.34,0,.48,0,.96,0,1.44,.08,5.26,4.16,9.29,9.43,9.29,76.53,0,153.06,0,229.6,0,5.4,0,9.46-4.05,9.46-9.47,0-66.38,0-132.76,0-199.14,0-.64-.01-1.29-.15-1.9-1.01-4.6-4.62-7.49-9.37-7.49-38.21,0-76.41,0-114.62,0Z"/>
        <path class="cls-4" d="M132.45,8.33c38.21,0,76.41,0,114.62,0,4.74,0,8.36,2.88,9.37,7.49,.13,.62,.15,1.27,.15,1.9,0,66.38,0,132.76,0,199.14,0,5.42-4.06,9.47-9.46,9.47-76.53,0-153.06,0-229.6,0-5.27,0-9.35-4.03-9.43-9.29,0-.48,0-.96,0-1.44,0-65.78,0-131.56,0-197.34,0-4.62,2.23-8.03,6.33-9.42,1.1-.38,2.34-.49,3.52-.49,38.17-.02,76.33-.02,114.5-.02Zm78.14,93.87c-2.4,5-4.61,9.92-7.07,14.7-4.43,8.61-9.26,16.97-15.87,24.15-2.11,2.3-4.41,4.42-7.45,5.48-2.55,.89-4.62,.25-6.25-1.89-1.61-2.11-2.39-4.59-2.99-7.12-1.57-6.6-2.01-13.35-2.08-20.09-.11-10.62,.11-21.25,.13-31.88,0-2.99,.1-6.03-.42-8.95-1.03-5.73-4.67-9.9-9.15-13.31-8.52-6.48-18.37-9.48-28.86-10.52-9.21-.91-18.35-.11-27.34,2.12-17.87,4.44-32.12,14.17-42.08,29.71-10.56,16.47-14.48,34.5-11.54,53.9,1.22,8.04,3.94,15.54,8.87,22.11,5.2,6.93,11.99,11.29,20.71,12.28,5.35,.61,10.68,.16,15.98-.73,15.05-2.53,26.77-10.11,34.99-23.03,.22-.35,.46-.68,.63-.94,1.53,3.13,2.84,6.26,4.52,9.18,3.37,5.87,8.03,10.44,14.4,13,7.55,3.03,15.37,3.06,23.22,1.6,13.08-2.43,24.34-8.49,33.95-17.62,6.29-5.98,11.18-12.92,13.63-21.36,2.32-7.99,1.98-15.78-2.3-23.13-1.88-3.23-4.41-5.83-7.61-7.69Z"/>
        <path class="cls-3" d="M210.59,102.2c3.2,1.85,5.73,4.46,7.61,7.69,4.28,7.35,4.62,15.14,2.3,23.13-2.45,8.44-7.34,15.38-13.63,21.36-9.61,9.13-20.87,15.18-33.95,17.62-7.85,1.46-15.67,1.43-23.22-1.6-6.37-2.56-11.03-7.13-14.4-13-1.68-2.92-3-6.06-4.52-9.18-.17,.26-.41,.59-.63,.94-8.21,12.92-19.94,20.5-34.99,23.03-5.3,.89-10.63,1.34-15.98,.73-8.72-.99-15.51-5.35-20.71-12.28-4.93-6.57-7.65-14.07-8.87-22.11-2.95-19.4,.98-37.43,11.54-53.9,9.97-15.54,24.22-25.27,42.08-29.71,8.98-2.23,18.12-3.04,27.34-2.12,10.49,1.04,20.35,4.04,28.86,10.52,4.48,3.41,8.12,7.58,9.15,13.31,.52,2.91,.43,5.96,.42,8.95-.02,10.63-.25,21.25-.13,31.88,.07,6.74,.51,13.48,2.08,20.09,.6,2.53,1.38,5.01,2.99,7.12,1.63,2.13,3.7,2.78,6.25,1.89,3.04-1.06,5.34-3.18,7.45-5.48,6.61-7.18,11.44-15.55,15.87-24.15,2.46-4.78,4.68-9.7,7.07-14.7Zm-114.81,26.27c.18,1.88,.4,5.38,.87,8.86,.41,3.05,1.25,6.01,3.05,8.6,1.33,1.91,3.16,2.92,5.45,2.41,1.52-.34,3.07-.92,4.38-1.76,2.63-1.68,4.25-4.29,5.64-7.01,2.59-5.05,4.2-10.45,5.12-16.01,1.07-6.49,2.02-13.01,2.54-19.56,.47-5.91,.37-11.88,.33-17.82-.02-2.42-.5-4.85-1.83-6.99-.85-1.37-2.05-2.08-3.69-2.01-2.8,.11-5.16,1.29-7.22,3.1-3.76,3.3-6.1,7.56-7.97,12.09-4.54,11.03-6.38,22.59-6.68,36.1Z"/>
        <path class="cls-2" d="M95.78,128.46c.29-13.5,2.14-25.07,6.68-36.1,1.87-4.53,4.21-8.79,7.97-12.09,2.06-1.81,4.41-2.99,7.22-3.1,1.63-.06,2.84,.64,3.69,2.01,1.32,2.14,1.81,4.57,1.83,6.99,.04,5.94,.14,11.9-.33,17.82-.52,6.55-1.47,13.08-2.54,19.56-.92,5.55-2.53,10.96-5.12,16.01-1.4,2.72-3.02,5.33-5.64,7.01-1.31,.84-2.86,1.42-4.38,1.76-2.3,.51-4.12-.5-5.45-2.41-1.8-2.59-2.64-5.55-3.05-8.6-.46-3.47-.69-6.98-.87-8.86Z"/>
      </g>
    </g>
  </g>
</svg>